HIERARCHY
ROOT Hips
{
    OFFSET   0.000000   0.000000   0.000000
    CHANNELS 6 Xposition Yposition Zposition Zrotation Xrotation Yrotation
    JOINT Chest
    {
        OFFSET   0.000000   8.007230   0.000000
        CHANNELS 3 Zrotation Xrotation Yrotation
        JOINT Chest2
        {
            OFFSET   0.000000  22.077100   0.000000
            CHANNELS 3 Zrotation Xrotation Yrotation
            JOINT Neck
            {
                OFFSET   0.000000  23.255100   0.000000
                CHANNELS 3 Zrotation Xrotation Yrotation
                JOINT Head
                {
                    OFFSET   0.000000  14.370100   1.956600
                    CHANNELS 3 Zrotation Xrotation Yrotation
                    End Site
                    {
                        OFFSET   0.000000  19.566000   0.000000
                    }
                }
            }
            JOINT LeftCollar
            {
                OFFSET   3.911900  19.017000  -0.467063
                CHANNELS 3 Zrotation Xrotation Yrotation
                JOINT LeftShoulder
                {
                    OFFSET  10.383700   0.000000   0.000000
                    CHANNELS 3 Zrotation Xrotation Yrotation
                    JOINT LeftElbow
                    {
                        OFFSET  26.662100   0.001193   0.000980
                        CHANNELS 3 Zrotation Xrotation Yrotation
                        JOINT LeftWrist
                        {
                            OFFSET  28.869000  -0.000059  -0.000082
                            CHANNELS 3 Zrotation Xrotation Yrotation
                            JOINT LeftFinger0
                            {
                                OFFSET   2.044650  -2.323450   3.252850
                                CHANNELS 3 Zrotation Xrotation Yrotation
                                JOINT LeftFinger01
                                {
                                    OFFSET   3.088130   0.000000   0.000000
                                    CHANNELS 3 Zrotation Xrotation Yrotation
                                    JOINT LeftFinger02
                                    {
                                        OFFSET   2.639460   0.000000   0.000000
                                        CHANNELS 3 Zrotation Xrotation Yrotation
                                        End Site
                                        {
                                            OFFSET   2.582190   0.000000   0.000000
                                        }
                                    }
                                }
                            }
                            JOINT LeftFinger1
                            {
                                OFFSET   8.364480   0.000000   3.252850
                                CHANNELS 3 Zrotation Xrotation Yrotation
                                JOINT LeftFinger11
                                {
                                    OFFSET   4.646930   0.000000   0.000000
                                    CHANNELS 3 Zrotation Xrotation Yrotation
                                    JOINT LeftFinger12
                                    {
                                        OFFSET   2.323470   0.000000   0.000000
                                        CHANNELS 3 Zrotation Xrotation Yrotation
                                        End Site
                                        {
                                            OFFSET   2.273050   0.000000   0.000000
                                        }
                                    }
                                }
                            }
                            JOINT LeftFinger2
                            {
                                OFFSET   8.364490   0.000016   1.078090
                                CHANNELS 3 Zrotation Xrotation Yrotation
                                JOINT LeftFinger21
                                {
                                    OFFSET   5.111610   0.000000   0.000000
                                    CHANNELS 3 Zrotation Xrotation Yrotation
                                    JOINT LeftFinger22
                                    {
                                        OFFSET   2.788150   0.000016   0.000000
                                        CHANNELS 3 Zrotation Xrotation Yrotation
                                        End Site
                                        {
                                            OFFSET   2.727660   0.000000   0.000000
                                        }
                                    }
                                }
                            }
                            JOINT LeftFinger3
                            {
                                OFFSET   7.899780   0.000015  -1.078090
                                CHANNELS 3 Zrotation Xrotation Yrotation
                                JOINT LeftFinger31
                                {
                                    OFFSET   4.646930   0.000000   0.000000
                                    CHANNELS 3 Zrotation Xrotation Yrotation
                                    JOINT LeftFinger32
                                    {
                                        OFFSET   2.323470   0.000000   0.000000
                                        CHANNELS 3 Zrotation Xrotation Yrotation
                                        End Site
                                        {
                                            OFFSET   2.273050   0.000000   0.000000
                                        }
                                    }
                                }
                            }
                            JOINT LeftFinger4
                            {
                                OFFSET   7.435090   0.000000  -3.252850
                                CHANNELS 3 Zrotation Xrotation Yrotation
                                JOINT LeftFinger41
                                {
                                    OFFSET   3.717550   0.000000   0.000000
                                    CHANNELS 3 Zrotation Xrotation Yrotation
                                    JOINT LeftFinger42
                                    {
                                        OFFSET   1.858770   0.000000   0.000000
                                        CHANNELS 3 Zrotation Xrotation Yrotation
                                        End Site
                                        {
                                            OFFSET   1.818440   0.000000   0.000000
                                        }
                                    }
                                }
                            }
                        }
                    }
                }
            }
            JOINT RightCollar
            {
                OFFSET  -3.911910  19.017000  -0.467062
                CHANNELS 3 Zrotation Xrotation Yrotation
                JOINT RightShoulder
                {
                    OFFSET -10.383700   0.000014   0.000000
                    CHANNELS 3 Zrotation Xrotation Yrotation
                    JOINT RightElbow
                    {
                        OFFSET -26.662100   0.001225   0.001091
                        CHANNELS 3 Zrotation Xrotation Yrotation
                        JOINT RightWrist
                        {
                            OFFSET -28.869000  -0.000020  -0.000085
                            CHANNELS 3 Zrotation Xrotation Yrotation
                            JOINT RightFinger0
                            {
                                OFFSET  -2.044650  -2.323490   3.252850
                                CHANNELS 3 Zrotation Xrotation Yrotation
                                JOINT RightFinger01
                                {
                                    OFFSET  -3.088130   0.000000   0.000000
                                    CHANNELS 3 Zrotation Xrotation Yrotation
                                    JOINT RightFinger02
                                    {
                                        OFFSET  -2.639460   0.000000   0.000000
                                        CHANNELS 3 Zrotation Xrotation Yrotation
                                        End Site
                                        {
                                            OFFSET  -2.582190   0.000000   0.000000
                                        }
                                    }
                                }
                            }
                            JOINT RightFinger1
                            {
                                OFFSET  -8.364480   0.000000   3.252850
                                CHANNELS 3 Zrotation Xrotation Yrotation
                                JOINT RightFinger11
                                {
                                    OFFSET  -4.646930   0.000000   0.000000
                                    CHANNELS 3 Zrotation Xrotation Yrotation
                                    JOINT RightFinger12
                                    {
                                        OFFSET  -2.323470   0.000000   0.000000
                                        CHANNELS 3 Zrotation Xrotation Yrotation
                                        End Site
                                        {
                                            OFFSET  -2.273050   0.000000   0.000000
                                        }
                                    }
                                }
                            }
                            JOINT RightFinger2
                            {
                                OFFSET  -8.364480   0.000000   1.078090
                                CHANNELS 3 Zrotation Xrotation Yrotation
                                JOINT RightFinger21
                                {
                                    OFFSET  -5.111620   0.000000   0.000000
                                    CHANNELS 3 Zrotation Xrotation Yrotation
                                    JOINT RightFinger22
                                    {
                                        OFFSET  -2.788160   0.000000   0.000000
                                        CHANNELS 3 Zrotation Xrotation Yrotation
                                        End Site
                                        {
                                            OFFSET  -2.727660   0.000000   0.000000
                                        }
                                    }
                                }
                            }
                            JOINT RightFinger3
                            {
                                OFFSET  -7.899780   0.000000  -1.078090
                                CHANNELS 3 Zrotation Xrotation Yrotation
                                JOINT RightFinger31
                                {
                                    OFFSET  -4.646930   0.000000   0.000000
                                    CHANNELS 3 Zrotation Xrotation Yrotation
                                    JOINT RightFinger32
                                    {
                                        OFFSET  -2.323470   0.000000   0.000000
                                        CHANNELS 3 Zrotation Xrotation Yrotation
                                        End Site
                                        {
                                            OFFSET  -2.273050   0.000000   0.000000
                                        }
                                    }
                                }
                            }
                            JOINT RightFinger4
                            {
                                OFFSET  -7.435090   0.000000  -3.252850
                                CHANNELS 3 Zrotation Xrotation Yrotation
                                JOINT RightFinger41
                                {
                                    OFFSET  -3.717550   0.000000   0.000000
                                    CHANNELS 3 Zrotation Xrotation Yrotation
                                    JOINT RightFinger42
                                    {
                                        OFFSET  -1.858760   0.000000   0.000000
                                        CHANNELS 3 Zrotation Xrotation Yrotation
                                        End Site
                                        {
                                            OFFSET  -1.818440   0.000000   0.000000
                                        }
                                    }
                                }
                            }
                        }
                    }
                }
            }
        }
    }
    JOINT LeftHip
    {
        OFFSET   9.783030   0.000000   0.000000
        CHANNELS 3 Zrotation Xrotation Yrotation
        JOINT LeftKnee
        {
            OFFSET   0.000063 -41.789100   0.000608
            CHANNELS 3 Zrotation Xrotation Yrotation
            JOINT LeftAnkle
            {
                OFFSET   0.000048 -41.133200  -0.000184
                CHANNELS 3 Zrotation Xrotation Yrotation
                JOINT LeftToe
                {
                    OFFSET   0.000000  -6.358960  14.674500
                    CHANNELS 3 Zrotation Xrotation Yrotation
                    End Site
                    {
                        OFFSET   0.000000   0.000000   3.913200
                    }
                }
            }
        }
    }
    JOINT RightHip
    {
        OFFSET  -9.783030   0.000000   0.000000
        CHANNELS 3 Zrotation Xrotation Yrotation
        JOINT RightKnee
        {
            OFFSET   0.000071 -41.789100   0.001239
            CHANNELS 3 Zrotation Xrotation Yrotation
            JOINT RightAnkle
            {
                OFFSET   0.000037 -41.133200  -0.000166
                CHANNELS 3 Zrotation Xrotation Yrotation
                JOINT RightToe
                {
                    OFFSET   0.000000  -6.358960  14.674500
                    CHANNELS 3 Zrotation Xrotation Yrotation
                    End Site
                    {
                        OFFSET   0.000000   0.000000   3.913200
                    }
                }
            }
        }
    }
}
MOTION
Frames: 5
Frame Time:   0.016667
  0.008847  89.592200  -1.291810  -2.955670  -6.593920  -4.479310   0.588999   4.145830   0.832017   1.121830   8.299600   1.627570   1.654030  -0.211576   0.010948   2.726250  -0.428697   1.886680  -4.910880  -0.059483   2.078180 -74.505700  18.363700  -4.188110  -2.488350  -5.970130 -13.502900  15.167900 -12.216200  10.521100  40.175700  34.703700 -62.928900 -32.181200  -0.003592   0.001528 -11.090600   0.000271  -0.014250 -26.859400   5.789100 -11.293800 -22.443300  -0.001915   0.001751 -15.710400  -0.003808   0.000741 -27.538700   0.686764  -1.316810 -29.434800  -0.006652   0.004553 -19.603600  -0.001162  -0.000648 -27.253800   0.680119  -1.320250 -28.084000  -0.001871  -0.001406 -18.703900  -0.001490  -0.002717 -28.337600   0.705160  -1.307050 -42.525900  -0.002880  -0.002344 -28.317900  -0.003167   0.001356   9.748480   1.425320   4.742890  69.662100  12.552600  -4.917410   0.127965  -6.676480  11.584500 -14.056300  -9.405350   1.541830 -34.665300  29.393100  59.773200  36.664700   0.008804  -0.006549  13.332300   0.007112   0.010260  32.116700   9.701180  15.026900  27.326600  -0.002492   0.012004  19.128600   0.003074   0.007913  28.628400  -1.781900  -3.259810  38.586900  -0.002476  -0.002371  25.698900  -0.004176  -0.008030  34.525900  -2.108280  -3.059920  51.871000  -0.000570  -0.005077  34.546000  -0.000540  -0.003881  50.521700  -4.729920  -3.886000  76.024000  -0.000684   0.001175  50.632000  -0.014000   0.000836   2.232580   8.323920   3.969390   0.959012   0.201626   7.761600  -1.729350  -2.414610   3.486580  -0.000000   0.000000   0.000000   4.179100   5.157950  -5.039120  -2.610890   4.859950  -7.301520  -0.261198  -4.266060   0.951491   0.000000   0.000000   0.000000
  0.009006  89.592000  -1.287580  -2.954510  -6.617530  -4.425050   0.588773   4.160170   0.844081   1.120680   8.328390   1.651700   1.659830  -0.211533   0.010946   2.731840  -0.428297   1.854950  -4.902880  -0.047039   2.075370 -74.498800  18.445900  -4.236190  -2.485430  -5.993310 -13.502300  15.169400 -12.221200  10.526300  40.174300  34.716800 -62.946700 -32.194500  -0.003593   0.001529 -11.097200   0.000268  -0.014253 -26.874800   5.789470 -11.275100 -22.455700  -0.001913   0.001752 -15.719000  -0.003808   0.000741 -27.539300   0.675679  -1.295410 -29.449200  -0.006650   0.004559 -19.611500  -0.001161  -0.000643 -27.254100   0.669130  -1.298800 -28.093200  -0.001867  -0.001407 -18.710000  -0.001488  -0.002713 -28.338200   0.693687  -1.285850 -42.524200  -0.002880  -0.002344 -28.317900  -0.003168   0.001358   9.785230   1.325630   4.729030  69.666500  12.679000  -4.912250   0.099997  -6.550340  11.560000 -14.059900  -9.245960   1.498210 -34.443300  29.274100  59.954400  36.740400   0.008778  -0.006495  13.370100   0.007118   0.010287  32.103400   9.712180  15.051700  27.318400  -0.002491   0.012009  19.122900   0.003093   0.007914  28.609000  -1.833950  -3.357730  38.325700  -0.002474  -0.002247  25.524900  -0.004221  -0.008053  34.486700  -2.169230  -3.153830  51.614800  -0.000570  -0.005198  34.425500  -0.000540  -0.003974  50.427400  -4.694020  -3.867310  75.879900  -0.000684   0.001175  50.536000  -0.014094   0.000836   2.238450   8.359650   3.960240   0.959850   0.159538   7.746990  -1.736180  -2.383950   3.457660   0.000000   0.000000   0.000000   4.182290   5.190130  -5.046140  -2.604950   4.860710  -7.324580  -0.263162  -4.270590   0.924150   0.000000   0.000000   0.000000
  0.009164  89.591900  -1.281290  -2.955330  -6.663940  -4.342760   0.587782   4.187890   0.863806   1.116490   8.383990   1.691170   1.668350  -0.211490   0.010945   2.740820  -0.427899   1.812110  -4.888380  -0.023150   2.068640 -74.489100  18.592700  -4.323460  -2.479100  -6.034430 -13.495000  15.167700 -12.226200  10.533900  40.178800  34.743700 -62.983200 -32.214900  -0.003594   0.001535 -11.107400   0.000266  -0.014263 -26.896600   5.790010 -11.248200 -22.473200  -0.001902   0.001755 -15.731200  -0.003809   0.000742 -27.540100   0.659480  -1.264170 -29.463600  -0.006643   0.004575 -19.622700  -0.001157  -0.000629 -27.254600   0.653079  -1.267480 -28.105500  -0.001857  -0.001407 -18.718200  -0.001482  -0.002703 -28.338900   0.676904  -1.254910 -42.519500  -0.002879  -0.002345 -28.317900  -0.003172   0.001364   9.848830   1.153680   4.708590  69.671400  12.922200  -4.876810   0.045520  -6.294540  11.532500 -14.037600  -8.949080   1.342660 -34.278200  29.067200  60.253200  36.882500   0.008732  -0.006441  13.441200   0.007128   0.010339  32.089800   9.724490  15.076500  27.310200  -0.002483   0.012016  19.117200   0.003133   0.007917  28.575500  -1.918940  -3.518010  37.881900  -0.002470  -0.002124  25.229300  -0.004310  -0.008092  34.259600  -2.257870  -3.312300  51.358700  -0.000570  -0.005399  34.229800  -0.000540  -0.004129  50.262000  -4.627500  -3.836000  75.626100  -0.000684   0.001175  50.367000  -0.014252   0.000836   2.250610   8.413630   3.945640   0.960689   0.117450   7.721810  -1.750880  -2.353310   3.416970   0.000000   0.000000   0.000000   4.187710   5.249340  -5.053390  -2.594690   4.861310  -7.362570  -0.266131  -4.277780   0.882822  -0.000000   0.000000   0.000000
  0.008972  89.591800  -1.277270  -2.960960  -6.713880  -4.287640   0.585640   4.215390   0.878923   1.110330   8.439120   1.721480   1.672430  -0.211611   0.010963   2.747090  -0.428142   1.799140  -4.874660   0.005064   2.062080 -74.487200  18.727500  -4.408000  -2.469610  -6.070270 -13.474700  15.153900 -12.215700  10.537800  40.194400  34.781000 -63.018000 -32.227600  -0.003597   0.001551 -11.113800   0.000276  -0.014287 -26.904900   5.791010 -11.234100 -22.479900  -0.001879   0.001759 -15.735900  -0.003812   0.000746 -27.540500   0.651152  -1.248180 -29.463000  -0.006633   0.004603 -19.627300  -0.001151  -0.000605 -27.254800   0.644845  -1.251450 -28.108100  -0.001842  -0.001406 -18.720000  -0.001472  -0.002689 -28.334700   0.668237  -1.239110 -42.511400  -0.002878  -0.002345 -28.313500  -0.003178   0.001374   9.905300   0.999471   4.698210  69.673400  13.182400  -4.801200  -0.089231  -5.989940  11.546100 -13.918500  -8.661290   1.042000 -33.903600  28.410600  59.980300  37.046700   0.008686  -0.006464  13.523300   0.007135   0.010400  32.149900   9.726950  15.056300  27.359300  -0.002462   0.012021  19.151500   0.003181   0.007928  28.547400  -1.985920  -3.644610  37.514600  -0.002467  -0.002155  24.984700  -0.004426  -0.008131  33.550100  -2.280500  -3.476500  51.377600   0.003853  -0.005601  34.049600   0.003983  -0.004284  50.072100  -4.540970  -3.804180  75.331800   0.004432  -0.004492  50.171000  -0.014409  -0.004951   2.265450   8.436350   3.934610   0.959383   0.153645   7.698320  -1.772520  -2.363230   3.398790   0.000000   0.000000   0.000000   4.192210   5.306490  -5.052270  -2.585320   4.860900  -7.393630  -0.268165  -4.283100   0.854221  -0.000000   0.000000   0.000000
  0.008522  89.591800  -1.275300  -2.971830  -6.776380  -4.255100   0.582808   4.252800   0.893302   1.103450   8.514040   1.750310   1.675910  -0.212460   0.010988   2.753340  -0.429817   1.797290  -4.858800   0.032069   2.046780 -74.483400  18.881300  -4.501430  -2.460770  -6.113660 -13.446600  15.133200 -12.195700  10.539000  40.214300  34.827900 -63.062000 -32.238700  -0.003601   0.001567 -11.119300   0.000290  -0.014312 -26.910600   5.792390 -11.227900 -22.484800  -0.001847   0.001766 -15.739400  -0.003817   0.000751 -27.540800   0.645853  -1.238040 -29.462500  -0.006619   0.004640 -19.629700  -0.001144  -0.000574 -27.255000   0.639621  -1.241280 -28.109800  -0.001821  -0.001406 -18.721100  -0.001457  -0.002669 -28.327600   0.662683  -1.229110 -42.502100  -0.002878  -0.002345 -28.306300  -0.003185   0.001387   9.963600   0.847158   4.690150  69.663100  13.486300  -4.674690  -0.336856  -5.637440  11.666700 -13.719600  -8.304520   0.647325 -33.567900  27.705000  59.790800  37.196500   0.008643  -0.006488  13.598200   0.007141   0.010459  32.214200   9.729070  15.013800  27.408300  -0.002433   0.012027  19.185800   0.003242   0.007940  28.517400  -2.045460  -3.758550  37.126000  -0.002465  -0.002372  24.725900  -0.004532  -0.008155  33.024800  -2.329940  -3.576290  51.509500   0.008277  -0.005721  33.944600   0.008505  -0.004377  49.953300  -4.485040  -3.785000  75.147100   0.009549  -0.013896  50.048000  -0.014504  -0.010737   2.282850   8.470010   3.925750   0.958099   0.189843   7.677010  -1.795180  -2.373120   3.392370   0.000000   0.000000  -0.000000   4.197670   5.374170  -5.049710  -2.576210   4.860530  -7.420920  -0.269042  -4.287470   0.839608   0.000000   0.000000   0.000000
